<svg viewBox="0 0 72 72" xmlns="http://www.w3.org/2000/svg"><g fill="none" stroke="#000" stroke-miterlimit="10" stroke-width="2"><path d="m51.5334 37.3844-16.2995-16.2997c6.2853-6.2853 8.5839 1.4216 15.9401-5.9347l1.5737-1.5734c1.738-1.7383 4.5563-1.7383 6.2938 0 1.7383 1.7377 1.7383 4.5561.0005 6.2938l-1.5739 1.574c-7.3561 7.3561.3507 9.6545-5.9347 15.94z" stroke-linejoin="round"/><path d="m57.5208 12.5842c.0079.0032.0162.0042.024.0072.2369.0945.4637.218.6847.3549.034.021.0715.0332.105.0552.2499.1643.4872.3553.7069.5752.4346.4343.7605.9363.9778 1.472.3259.8036.4075 1.6832.2446 2.5248-.1629.8417-.5703 1.6453-1.2219 2.2969l-1.5739 1.5741c-2.2988 2.2987-3.1266 4.1036-3.3701 5.6906-.0487.3174-.074.6261-.0831.9282-.0181.6044.0289 1.1826.0843 1.7527.0692.7124.1515 1.4117.136 2.1326-.0062.2883-.028.5801-.0726.8774-.1337.8921-.472 1.8351-1.2065 2.8884-.2402.3442-.524.7008-.8555 1.0708-.0368 1.3615-.5595 2.7123-1.5927 3.7454l-18.4878 18.488c-2.1425 2.1426-5.6482 2.1426-7.7905 0l-10.2711-10.2708-.1794-.1794c-2.1425-2.1426-2.1425-5.6484 0-7.7908l4.6223-4.6221 4.6221-4.6221 4.6221-4.6219 4.6217-4.6217c.9285-.9285 2.115-1.4297 3.3335-1.5535 6.0092-5.6279 8.3631 1.624 15.5734-5.5863l1.5737-1.5734c1.2906-1.2909 3.1759-1.6186 4.773-.9924z"/><g stroke-linecap="round" stroke-linejoin="round"><path d="m34.0213 35.0213-7-7"/><path d="m29.5213 39.5213-7-7"/><path d="m24.5213 44.5213-7-7"/></g></g></svg>