<svg fill="none" height="192" viewBox="0 0 192 192" width="192" xmlns="http://www.w3.org/2000/svg"><path d="m29.004 157.064 5.987-.399zm-7.004-105.064v-6a6 6 0 0 0 -5.987 6.4zm140.996 105.064-5.987-.399zm7.004-105.064 5.987.4a6 6 0 0 0 -5.987-6.4zm-135.009 104.665-7.004-105.064-11.974.798 7.005 105.064zm133.991.798 7.005-105.064-11.974-.798-7.004 105.064zm-11.973-.798a10 10 0 0 1 -9.978 9.335v12c11.582 0 21.181-8.98 21.951-20.537zm-133.991.798c.77 11.557 10.369 20.537 21.95 20.537v-12a10 10 0 0 1 -9.977-9.335zm50.982-109.463c0-12.15 9.85-22 22-22v-12c-18.778 0-34 15.222-34 34zm22-22c12.15 0 22 9.85 22 22h12c0-18.778-15.222-34-34-34zm-74 32h148v-12h-148zm22.969 120h102.061v-12h-102.061z" fill="#000"/><path d="m114 84h-26c-7.732 0-14 6.268-14 14 0 7.732 6.268 14 14 14h4m-2 0h14c7.732 0 14 6.268 14 14 0 7.732-6.268 14-14 14h-26" stroke="#000" stroke-linecap="round" stroke-width="12"/></svg>